<?xml version="1.0" standalone="no"?>
<!DOCTYPE svg PUBLIC "-//W3C//DTD SVG 20010904//EN"
 "http://www.w3.org/TR/2001/REC-SVG-20010904/DTD/svg10.dtd">
<svg version="1.0" xmlns="http://www.w3.org/2000/svg"
 width="1024.000000pt" height="1024.000000pt" viewBox="0 0 1024.000000 1024.000000"
 preserveAspectRatio="xMidYMid meet">
<metadata>
Created by potrace 1.14, written by Peter Selinger 2001-2017
</metadata>
<g transform="translate(0.000000,1024.000000) scale(0.100000,-0.100000)"
fill="#000000" stroke="none">
<path d="M0 5120 l0 -5120 5120 0 5120 0 0 5120 0 5120 -5120 0 -5120 0 0
-5120z m2875 2330 c679 -41 1178 -233 1535 -590 318 -318 505 -745 561 -1285
15 -145 15 -529 0 -680 -46 -452 -184 -846 -411 -1167 -131 -186 -365 -401
-581 -535 -157 -98 -402 -207 -591 -263 -454 -135 -845 -163 -1699 -120 -575
28 -619 31 -619 39 0 4 9 51 20 104 60 289 70 583 70 2177 0 1588 -10 1908
-71 2185 -10 49 -19 95 -19 102 0 10 37 11 182 6 101 -3 324 0 498 7 330 13
712 26 865 28 50 1 167 -3 260 -8z m4345 -25 c729 0 1448 2 1599 5 l274 5 45
-248 c24 -136 42 -250 39 -253 -3 -3 -69 11 -148 30 -387 94 -849 154 -1262
163 l-248 6 4 -1804 c3 -1234 8 -1850 15 -1949 17 -211 31 -323 53 -429 10
-52 19 -98 19 -103 0 -4 -172 -8 -381 -8 l-381 0 6 28 c79 360 86 576 86 2620
l0 1642 -167 0 c-400 0 -932 -66 -1341 -167 -79 -19 -146 -33 -148 -30 -4 4
46 301 77 454 l10 53 262 -8 c144 -4 858 -7 1587 -7z"/>
<path d="M2285 7174 c-33 -2 -141 -8 -240 -14 -99 -6 -201 -13 -226 -16 l-47
-6 -6 -132 c-3 -72 -11 -498 -17 -946 -11 -823 -2 -1936 21 -2535 14 -362 18
-413 39 -419 111 -33 751 -41 965 -13 404 54 688 168 954 383 299 240 501 650
577 1167 37 254 37 686 0 956 -123 896 -618 1437 -1426 1557 -100 14 -466 26
-594 18z"/>
</g>
</svg>
